<svg enable-background="new 0 0 512 512" height="512" viewBox="0 0 512 512" width="512" xmlns="http://www.w3.org/2000/svg"><g fill="#3b4652"><path d="m253.3 39.5h-118v60.2h118zm-20.5 37.1h-77c-3.9 0-7-3.1-7-7s3.1-7 7-7h77c3.9 0 7 3.1 7 7 0 3.8-3.1 7-7 7z"/><path d="m121.3 39.5h-15.2c-14.2 0-25.8 11.5-25.8 25.8v34.4h41z"/><path d="m308.3 65.3c0-14.2-11.5-25.8-25.8-25.8h-15.2v60.2h41z"/><path d="m80.3 446.7c0 14.2 11.5 25.8 25.8 25.8h15.2v-60.2h-41z"/><path d="m267.3 472.5h15.2c14.2 0 25.8-11.5 25.8-25.8v-34.4h-41z"/><path d="m135.3 472.5h118v-60.2h-118zm59-43.6c7.4 0 13.5 6 13.5 13.5s-6.1 13.5-13.5 13.5c-7.5 0-13.5-6-13.5-13.5 0-7.4 6.1-13.5 13.5-13.5z"/><path d="m238.3 349.8-78 41.9 41.2-77.5c-15.6-22.4-24.1-49.3-24.1-76.8 0-35.2 13.5-68.5 38.1-93.7 12.8-13.1 27.8-23.2 44.1-30.1h-179.3v284.7h228v-26.8c-.2 0-.3 0-.4 0-25-.7-48.9-8.1-69.6-21.7z"/></g><path d="m311.5 117.3c-1.1 0-2.1 0-3.2.1-64.8 1.7-116.9 54.8-116.9 120.1 0 28.6 10 54.8 26.6 75.5l-23.8 44.7 45-24.2c19.3 14.6 43.1 23.4 69 24.1 1.1 0 2.2.1 3.2.1 66.4 0 120.1-53.8 120.1-120.2.2-66.4-53.6-120.2-120-120.2zm-35.2 191.8c-3 0-5.5-2.5-5.5-5.5s2.5-5.5 5.5-5.5 5.5 2.5 5.5 5.5-2.4 5.5-5.5 5.5zm49.8 0c-3 0-5.5-2.5-5.5-5.5s2.5-5.5 5.5-5.5 5.5 2.5 5.5 5.5-2.5 5.5-5.5 5.5zm58.7-119.8h-11.6l-10.2 27.4-22.8 61c-1 2.7-3.6 4.6-6.6 4.6h-64.8c-2.9 0-5.4-1.7-6.5-4.4l-24.4-61.1c-.9-2.2-.6-4.6.7-6.5s3.5-3.1 5.8-3.1h107.2l10.2-27.4c1-2.7 3.6-4.6 6.6-4.6h16.4c3.9 0 7 3.1 7 7s-3.1 7.1-7 7.1z" fill="#2b79c2"/><path d="m254.7 221.2 11.7 29.3 7.1 17.8h55.2l8.3-22.1 9.3-25z" fill="#2b79c2"/></svg>